# xmcd
#
# Track frame offsets:
#   150
#   18542
#   43928
#   71313
#   91707
#   112474
#   135700
#   154092
#   172236
#   192088
#   209458
#   231225
#   248244
#   264482
#   286197
#
# Disc length: 4051 seconds
#
# Revision: 0
# Processed by: cddbd v1.5.1PL0 Copyright (c) Steve Scherf et al.
# Submitted via: Media_Universe 3.0
#
DISCID=dd0fd10f
DTITLE=Sara Evans - Sara Evans
DYEAR=1900
DGENRE=Country
TTITLE0=Backseat Of A Greyhound Bus
TTITLE1=Born To Fly
TTITLE2=Every Little Kiss
TTITLE3=Four-Thirty
TTITLE4=I Keep Looking
TTITLE5=I Learned That From Loving You
TTITLE6=Let's Dance
TTITLE7=Perfect
TTITLE8=Saints And Angels
TTITLE9=Suds In The Bucket
TTITLE10=These Are The Moments
TTITLE11=Why Should I Care
TTITLE12=No Place That Far
TTITLE13=I Could Not Ask For More
TTITLE14=Show Me The Way To Your Heart
EXTD=
EXTT0=
EXTT1=
EXTT2=
EXTT3=
EXTT4=
EXTT5=
EXTT6=
EXTT7=
EXTT8=
EXTT9=
EXTT10=
EXTT11=
EXTT12=
EXTT13=
EXTT14=
PLAYORDER=
